<?xml version="1.0" encoding="UTF-8"?>
<svg xmlns="http://www.w3.org/2000/svg" viewBox="0 0 1200 630" width="1200" height="630">
  <defs>
    <linearGradient id="g39847" x1="94.14737964294633%" y1="26.526421860705447%" x2="5.8526203570536595%" y2="73.47357813929455%">
      <stop offset="0%" stop-color="#7C3AED"/>
      <stop offset="100%" stop-color="#6D28D9"/>
    </linearGradient>
  </defs>
  <rect width="1200" height="630" fill="url(#g39847)"/>
  <path d="M 999.6589109487832 376.2501879222691 L 806.7748540313914 376.2501879222691 L 806.7748540313914 464.693712387234" fill="none" stroke="rgba(255,255,255,0.14381412003189326)" stroke-width="2"/><circle cx="999.6589109487832" cy="376.2501879222691" r="4" fill="rgba(255,255,255,0.15)"/><path d="M 890.4086548555642 197.38991170190275 L 722.1430848352611 197.38991170190275 L 722.1430848352611 80.08805665187538" fill="none" stroke="rgba(255,255,255,0.11882478596642615)" stroke-width="2"/><circle cx="890.4086548555642" cy="197.38991170190275" r="4" fill="rgba(255,255,255,0.15)"/><path d="M 309.51820539310575 258.4283582516946 L 497.1165654039942 258.4283582516946 L 497.1165654039942 367.7362062619068" fill="none" stroke="rgba(255,255,255,0.1426935175806284)" stroke-width="2"/><circle cx="309.51820539310575" cy="258.4283582516946" r="4" fill="rgba(255,255,255,0.15)"/><path d="M 86.61884271539748 509.16017414070666 L -32.14672470930964 509.16017414070666 L -32.14672470930964 624.7717913147062" fill="none" stroke="rgba(255,255,255,0.09600397700443865)" stroke-width="2"/><circle cx="86.61884271539748" cy="509.16017414070666" r="4" fill="rgba(255,255,255,0.15)"/><path d="M 824.4568471983075 522.8206486930139 L 920.1965208305046 522.8206486930139 L 920.1965208305046 633.5751866851933" fill="none" stroke="rgba(255,255,255,0.1080485824495554)" stroke-width="2"/><circle cx="824.4568471983075" cy="522.8206486930139" r="4" fill="rgba(255,255,255,0.15)"/><text x="590.1037337258458" y="236.08933927025646" font-family="monospace" font-size="120" fill="rgba(255,255,255,0.07)">&lt;/&gt;</text><text x="685.8683894388378" y="413.48238942213356" font-family="monospace" font-size="48.004476737231016" fill="rgba(255,255,255,0.052661284487694505)">0</text><text x="1111.7755776643753" y="520.5045231292024" font-family="monospace" font-size="39.84627219568938" fill="rgba(255,255,255,0.10637380344793201)">0</text><text x="802.9261562973261" y="230.4686104762368" font-family="monospace" font-size="30.131845857948065" fill="rgba(255,255,255,0.07475301446393133)">1</text><text x="757.4483890272677" y="251.85273057082668" font-family="monospace" font-size="44.87635125219822" fill="rgba(255,255,255,0.10842638241127134)">0</text><text x="335.52834175527096" y="224.2334441607818" font-family="monospace" font-size="22.442115589044988" fill="rgba(255,255,255,0.07499052023515106)">0</text><text x="587.0073854364455" y="104.11865355679765" font-family="monospace" font-size="28.44222684763372" fill="rgba(255,255,255,0.12762529717758297)">0</text><text x="897.7232921868563" y="488.9313994627446" font-family="monospace" font-size="37.3917336082086" fill="rgba(255,255,255,0.1126054386422038)">0</text><rect x="947.9734299238771" y="319.0206654602662" width="16" height="16" rx="2" fill="rgba(255,255,255,0.1)"/><rect x="967.9734299238771" y="319.0206654602662" width="16" height="16" rx="2" fill="rgba(255,255,255,0.1)"/><rect x="987.9734299238771" y="319.0206654602662" width="16" height="16" rx="2" fill="rgba(255,255,255,0.1)"/><rect x="1007.9734299238771" y="319.0206654602662" width="16" height="16" rx="2" fill="rgba(255,255,255,0.04)"/><rect x="1027.9734299238771" y="319.0206654602662" width="16" height="16" rx="2" fill="rgba(255,255,255,0.04)"/><rect x="947.9734299238771" y="339.0206654602662" width="16" height="16" rx="2" fill="rgba(255,255,255,0.04)"/><rect x="967.9734299238771" y="339.0206654602662" width="16" height="16" rx="2" fill="rgba(255,255,255,0.1)"/><rect x="987.9734299238771" y="339.0206654602662" width="16" height="16" rx="2" fill="rgba(255,255,255,0.1)"/><rect x="1007.9734299238771" y="339.0206654602662" width="16" height="16" rx="2" fill="rgba(255,255,255,0.1)"/><rect x="1027.9734299238771" y="339.0206654602662" width="16" height="16" rx="2" fill="rgba(255,255,255,0.04)"/><rect x="947.9734299238771" y="359.0206654602662" width="16" height="16" rx="2" fill="rgba(255,255,255,0.1)"/><rect x="967.9734299238771" y="359.0206654602662" width="16" height="16" rx="2" fill="rgba(255,255,255,0.1)"/><rect x="987.9734299238771" y="359.0206654602662" width="16" height="16" rx="2" fill="rgba(255,255,255,0.04)"/><rect x="1007.9734299238771" y="359.0206654602662" width="16" height="16" rx="2" fill="rgba(255,255,255,0.1)"/><rect x="1027.9734299238771" y="359.0206654602662" width="16" height="16" rx="2" fill="rgba(255,255,255,0.04)"/>
  <circle cx="568.9227998256683" cy="230.75449089054018" r="2.5051133749075234" fill="rgba(255,255,255,0.07870390405412764)"/><circle cx="228.83533732965589" cy="63.39724191930145" r="1.2760166791267693" fill="rgba(255,255,255,0.06576919367769733)"/><circle cx="632.3408829979599" cy="508.0921625252813" r="1.3581225452944636" fill="rgba(255,255,255,0.06368716594995931)"/><circle cx="1158.9717496186495" cy="550.360028820578" r="2.4278359366580844" fill="rgba(255,255,255,0.07375245510600507)"/><circle cx="6.826876290142536" cy="207.67288075061515" r="2.214141031727195" fill="rgba(255,255,255,0.04253617007751018)"/><circle cx="1048.0405633337796" cy="122.38996731117368" r="1.2524685189127922" fill="rgba(255,255,255,0.059014431114774196)"/><circle cx="949.3649915792048" cy="405.0795443658717" r="1.6152708134613931" fill="rgba(255,255,255,0.04356732196873054)"/><circle cx="1018.8399740494788" cy="141.477346890606" r="1.4491136781871319" fill="rgba(255,255,255,0.038468178787734356)"/><circle cx="807.9625267535448" cy="118.71231276774779" r="2.8445720397867262" fill="rgba(255,255,255,0.07402337922947481)"/><circle cx="997.9570255614817" cy="255.91056395787746" r="2.49895542813465" fill="rgba(255,255,255,0.05013988292310387)"/><circle cx="1019.5990967564285" cy="32.70366988610476" r="1.9013889557681978" fill="rgba(255,255,255,0.030617182196583596)"/><circle cx="449.5720222592354" cy="156.07573869405314" r="2.4400743856094778" fill="rgba(255,255,255,0.04034644570900127)"/>
  <text x="600" y="335" font-family="system-ui, -apple-system, 'Segoe UI', sans-serif" font-size="68" font-weight="700" fill="rgba(0,0,0,0.15)" text-anchor="middle" letter-spacing="1">TOPCIT</text>
  <text x="600" y="332" font-family="system-ui, -apple-system, 'Segoe UI', sans-serif" font-size="68" font-weight="700" fill="white" text-anchor="middle" letter-spacing="1">TOPCIT</text>
  <g transform="translate(1140, 575)">
    <rect x="0" y="0" width="40" height="40" rx="8" fill="rgba(255,255,255,0.15)"/>
    <text x="20" y="29" font-family="sans-serif" font-weight="bold" font-size="24" fill="rgba(255,255,255,0.6)" text-anchor="middle">K</text>
  </g>
</svg>